<?xml version="1.0" encoding="UTF-8"?>
<svg width="21px" height="20px" viewBox="0 0 21 20" version="1.1" xmlns="http://www.w3.org/2000/svg" xmlns:xlink="http://www.w3.org/1999/xlink">
    <title>Icon Plus</title>
    <g id="Page-1" stroke="none" stroke-width="1" fill="none" fill-rule="evenodd">
        <g id="Mobile-Add-to-Homescreen-iOS-2" transform="translate(-368.000000, -716.000000)" fill="#121212" fill-rule="nonzero">
            <g id="Step-2-WIDE" transform="translate(21.000000, 562.000000)">
                <g id="Step-Add-to-Home-Screen" transform="translate(29.000000, 85.000000)">
                    <g id="Group">
                        <path d="M332.475098,88.9765625 C334.350586,88.9765625 335.788086,88.7744141 336.810059,87.7524414 C337.832031,86.7304688 338.011719,85.3266602 338.011719,83.4399414 L338.011719,75.2753906 C338.011719,73.3886719 337.832031,71.9736328 336.810059,70.9516602 C335.776855,69.9296875 334.350586,69.7387695 332.475098,69.7387695 L324.187012,69.7387695 C322.378906,69.7387695 320.941406,69.940918 319.919434,70.9628906 C318.897461,71.9736328 318.706543,73.3999023 318.706543,75.2192383 L318.706543,83.4399414 C318.706543,85.3266602 318.88623,86.7416992 319.908203,87.7524414 C320.941406,88.7744141 322.367676,88.9765625 324.243164,88.9765625 L332.475098,88.9765625 Z M332.76709,87.5053711 L323.951172,87.5053711 C322.771973,87.5053711 321.637695,87.3256836 320.986328,86.6855469 C320.334961,86.0341797 320.177734,84.9223633 320.177734,83.7207031 L320.177734,75.0395508 C320.177734,73.8041992 320.334961,72.6699219 320.986328,72.0185547 C321.626465,71.3671875 322.783203,71.1987305 324.007324,71.1987305 L332.76709,71.1987305 C333.946289,71.1987305 335.080566,71.378418 335.731934,72.0297852 C336.383301,72.6811523 336.551758,73.7929688 336.551758,74.9833984 L336.551758,83.7207031 C336.551758,84.9223633 336.37207,86.0341797 335.731934,86.6855469 C335.080566,87.3369141 333.946289,87.5053711 332.76709,87.5053711 Z M328.353516,84.2373047 C328.813965,84.2373047 329.128418,83.9228516 329.128418,83.4736328 L329.128418,80.0932617 L332.508789,80.0932617 C332.958008,80.0932617 333.272461,79.7788086 333.272461,79.3408203 C333.272461,78.8916016 332.958008,78.565918 332.508789,78.565918 L329.128418,78.565918 L329.128418,75.1967773 C329.128418,74.7363281 328.813965,74.421875 328.353516,74.421875 C327.915527,74.421875 327.601074,74.7363281 327.601074,75.1967773 L327.601074,78.565918 L324.231934,78.565918 C323.771484,78.565918 323.457031,78.8916016 323.457031,79.3408203 C323.457031,79.7788086 323.771484,80.0932617 324.231934,80.0932617 L327.601074,80.0932617 L327.601074,83.4736328 C327.601074,83.9228516 327.915527,84.2373047 328.353516,84.2373047 Z" id="Icon-Plus"></path>
                    </g>
                </g>
            </g>
        </g>
    </g>
</svg>