<?xml version="1.0" encoding="UTF-8"?>
<svg width="24px" height="24px" viewBox="0 0 24 24" version="1.1" xmlns="http://www.w3.org/2000/svg" xmlns:xlink="http://www.w3.org/1999/xlink">
    <title>tabs</title>
    <g id="Page-1" stroke="none" stroke-width="1" fill="none" fill-rule="evenodd">
        <g id="Mobile-Add-to-Homescreen-iOS-1" transform="translate(-358.000000, -732.000000)" fill="#000000" fill-rule="nonzero">
            <g id="Step-1-WIDE" transform="translate(21.000000, 602.000000)">
                <g id="Image----" transform="translate(53.000000, 116.000000)">
                    <path d="M304.427317,37.636494 C306.781502,37.636494 308,36.4534863 308,34.111131 L308,22.7660871 C308,20.4237319 306.781502,19.2288941 304.427317,19.2288941 L302.510844,19.2288941 L302.510844,17.525363 C302.510844,15.1948378 301.304176,14 298.949991,14 L287.675928,14 C285.298082,14 284.103244,15.1948378 284.103244,17.525363 L284.103244,28.882237 C284.103244,31.2245922 285.298082,32.4075999 287.675928,32.4075999 L289.58057,32.4075999 L289.58057,34.111131 C289.58057,36.4534863 290.787238,37.636494 293.153253,37.636494 L304.427317,37.636494 Z M289.58057,30.4674673 L287.746908,30.4674673 C286.658541,30.4674673 286.055207,29.8877935 286.055207,28.7521061 L286.055207,17.6554938 C286.055207,16.5316365 286.658541,15.9519627 287.746908,15.9519627 L298.879011,15.9519627 C299.955548,15.9519627 300.570712,16.5316365 300.570712,17.6554938 L300.570712,19.2288941 L293.153253,19.2288941 C290.787238,19.2288941 289.58057,20.4237319 289.58057,22.7660871 L289.58057,30.4674673 Z M304.356336,35.6963614 L293.224234,35.6963614 C292.135867,35.6963614 291.532533,35.1166876 291.532533,33.9810002 L291.532533,22.896218 C291.532533,21.7605306 292.135867,21.1808568 293.224234,21.1808568 L304.356336,21.1808568 C305.432873,21.1808568 306.048037,21.7605306 306.048037,22.896218 L306.048037,33.9810002 C306.048037,35.1166876 305.432873,35.6963614 304.356336,35.6963614 Z" id="tabs"></path>
                </g>
            </g>
        </g>
    </g>
</svg>