<?xml version="1.0" encoding="UTF-8"?>
<svg width="12px" height="20px" viewBox="0 0 12 20" version="1.1" xmlns="http://www.w3.org/2000/svg" xmlns:xlink="http://www.w3.org/1999/xlink">
    <title>&gt;</title>
    <g id="Page-1" stroke="none" stroke-width="1" fill="none" fill-rule="evenodd">
        <g id="Mobile-Add-to-Homescreen-iOS-1" transform="translate(-146.000000, -734.000000)" fill="#000000" fill-rule="nonzero">
            <g id="Step-1-WIDE" transform="translate(21.000000, 602.000000)">
                <g id="Image----" transform="translate(53.000000, 116.000000)">
                    <path d="M73.67772,35.5898907 C73.985302,35.5898907 74.2573938,35.4715899 74.4703352,35.2704786 L83.2955727,26.6345223 C83.5321742,26.3979208 83.650475,26.125829 83.650475,25.8064169 C83.650475,25.4870048 83.5321742,25.2149131 83.2955727,24.9664814 L74.4703352,16.3423553 C74.2573938,16.1294139 73.985302,16.0229432 73.67772,16.0229432 C73.0388959,16.0229432 72.5538627,16.5079763 72.5538627,17.1468005 C72.5538627,17.4425524 72.6839935,17.7383044 72.8851049,17.9394157 L80.9295573,25.8064169 L72.8851049,33.6615881 C72.6839935,33.8745295 72.5538627,34.1466213 72.5538627,34.4660333 C72.5538627,35.1048575 73.0388959,35.5898907 73.67772,35.5898907 Z" id="&gt;"></path>
                </g>
            </g>
        </g>
    </g>
</svg>