<?xml version="1.0" encoding="UTF-8"?>
<svg width="20px" height="25px" viewBox="0 0 20 25" version="1.1" xmlns="http://www.w3.org/2000/svg" xmlns:xlink="http://www.w3.org/1999/xlink">
    <title>Combined Shape</title>
    <g id="Page-1" stroke="none" stroke-width="1" fill="none" fill-rule="evenodd">
        <g id="Mobile-Add-to-Homescreen-iOS-1" transform="translate(-218.000000, -727.000000)" fill="#000000" fill-rule="nonzero">
            <g id="Step-1-WIDE" transform="translate(21.000000, 602.000000)">
                <g id="Image----" transform="translate(53.000000, 116.000000)">
                    <path d="M150.434363,15.9591518 L150.434363,17.8415453 L147.513801,17.8415453 C146.464224,17.8415453 145.882394,18.4005591 145.882394,19.4957699 L145.882394,19.4957699 L145.882394,29.9573145 C145.882394,31.0525253 146.464224,31.6115391 147.513801,31.6115391 L147.513801,31.6115391 L159.77788,31.6115391 C160.816049,31.6115391 161.409288,31.0525253 161.409288,29.9573145 L161.409288,29.9573145 L161.409288,19.4957699 C161.409288,18.4005591 160.816049,17.8415453 159.77788,17.8415453 L159.77788,17.8415453 L156.868727,17.8415453 L156.868727,15.9591518 L159.834922,15.9591518 C162.12802,15.9591518 163.280273,17.1114048 163.280273,19.370277 L163.280273,19.370277 L163.280273,30.0828074 C163.280273,32.3302712 162.12802,33.4825242 159.834922,33.4825242 L159.834922,33.4825242 L147.445351,33.4825242 C145.163661,33.4825242 144,32.3416796 144,30.0828074 L144,30.0828074 L144,19.370277 C144,17.1114048 145.163661,15.9591518 147.445351,15.9591518 L147.445351,15.9591518 L150.434363,15.9591518 Z M153.651545,9 C153.879714,9 154.085066,9.07985912 154.324643,9.30802803 L154.324643,9.30802803 L157.963937,12.8218293 C158.123656,12.9929559 158.226332,13.1754911 158.226332,13.4150684 C158.226332,13.8828147 157.861261,14.2136596 157.393515,14.2136596 C157.176755,14.2136596 156.948586,14.1223921 156.788867,13.9398569 L156.788867,13.9398569 L155.191685,12.2399985 L154.484361,11.4642242 L154.552812,13.0728151 L154.552812,24.081965 C154.552812,24.5725282 154.142108,24.9718238 153.651545,24.9718238 C153.149573,24.9718238 152.738869,24.5725282 152.738869,24.081965 L152.738869,24.081965 L152.738869,13.0728151 L152.80732,11.4642242 L152.099996,12.2399985 L150.514222,13.9398569 C150.354504,14.1223921 150.103518,14.2136596 149.886758,14.2136596 C149.419012,14.2136596 149.06535,13.8828147 149.06535,13.4150684 C149.06535,13.1754911 149.168026,12.9929559 149.339153,12.8218293 L149.339153,12.8218293 L152.978447,9.30802803 C153.206616,9.07985912 153.411968,9 153.651545,9 Z" id="Combined-Shape"></path>
                </g>
            </g>
        </g>
    </g>
</svg>