<?xml version="1.0" encoding="UTF-8"?>
<svg width="26px" height="22px" viewBox="0 0 26 22" version="1.1" xmlns="http://www.w3.org/2000/svg" xmlns:xlink="http://www.w3.org/1999/xlink">
    <title>book</title>
    <g id="Page-1" stroke="none" stroke-width="1" fill="none" fill-rule="evenodd">
        <g id="Mobile-Add-to-Homescreen-iOS-1" transform="translate(-284.000000, -733.000000)" fill="#000000" fill-rule="nonzero">
            <g id="Step-1-WIDE" transform="translate(21.000000, 602.000000)">
                <g id="Image----" transform="translate(53.000000, 116.000000)">
                    <path d="M234.117225,36.6191074 C234.8152,36.6191074 235.454024,36.252375 235.454024,35.2704786 L235.454024,18.4599391 C234.76788,16.8155583 232.046962,15.076537 228.67539,15.076537 C226.131923,15.076537 223.884209,16.1175838 222.937802,17.2651013 C221.979566,16.1175838 219.743682,15.076537 217.188385,15.076537 C213.816813,15.076537 211.095895,16.8155583 210.409751,18.4599391 L210.409751,35.2704786 C210.409751,36.252375 211.048575,36.6191074 211.74655,36.6191074 C212.302563,36.6191074 212.610145,36.4653164 212.953217,36.2050547 C213.722172,35.5662305 214.999821,34.8209357 217.188385,34.8209357 C219.400609,34.8209357 220.879369,35.5662305 221.530023,36.1222441 C221.861265,36.3943359 222.251658,36.6191074 222.937802,36.6191074 C223.623947,36.6191074 223.990679,36.3588457 224.333752,36.1222441 C225.031726,35.5898907 226.474996,34.8209357 228.67539,34.8209357 C230.863954,34.8209357 232.165263,35.5662305 232.910557,36.2050547 C233.26546,36.4653164 233.573042,36.6191074 234.117225,36.6191074 Z M212.515505,34.2412619 L212.515505,19.0987632 C212.787596,18.3534684 214.514788,17.0403298 217.188385,17.0403298 C219.873813,17.0403298 221.636494,18.3652984 221.884926,19.0987632 L221.884926,34.1939416 C220.725578,33.342176 219.022047,32.8689729 217.188385,32.8689729 C215.366553,32.8689729 213.663022,33.342176 212.515505,34.2412619 Z M233.34827,34.2412619 C232.200753,33.342176 230.509052,32.8689729 228.67539,32.8689729 C226.841728,32.8689729 225.150027,33.342176 223.978849,34.1939416 L223.978849,19.0987632 C224.227281,18.3652984 225.989962,17.0403298 228.67539,17.0403298 C231.348987,17.0403298 233.076179,18.3534684 233.34827,19.0987632 L233.34827,34.2412619 Z" id="book"></path>
                </g>
            </g>
        </g>
    </g>
</svg>