<?xml version="1.0" encoding="UTF-8"?>
<svg width="23px" height="23px" viewBox="0 0 23 23" version="1.1" xmlns="http://www.w3.org/2000/svg" xmlns:xlink="http://www.w3.org/1999/xlink">
    <title>Icon Pencil</title>
    <g id="Page-1" stroke="none" stroke-width="1" fill="none" fill-rule="evenodd">
        <g id="Mobile-Add-to-Homescreen-iOS-2" transform="translate(-366.000000, -782.000000)" fill="#121212" fill-rule="nonzero">
            <g id="Step-2-WIDE" transform="translate(21.000000, 562.000000)">
                <g id="Step-Add-to-Home-Screen" transform="translate(29.000000, 85.000000)">
                    <g id="Group">
                        <path d="M327.611816,157.054688 C333.485352,157.054688 338.325684,152.203125 338.325684,146.34082 C338.325684,140.467285 333.474121,135.615723 327.611816,135.615723 C321.738281,135.615723 316.897949,140.467285 316.897949,146.34082 C316.897949,152.203125 321.749512,157.054688 327.611816,157.054688 Z M322.793945,154.157227 C320.188477,152.540039 318.447754,149.653809 318.447754,146.34082 C318.447754,141.253418 322.524414,137.165527 327.611816,137.165527 C332.687988,137.165527 336.775879,141.253418 336.787163,146.34082 C336.79834,149.642578 335.057617,152.528809 332.440918,154.145996 L331.05957,147.722168 C330.947266,147.239258 330.56543,146.891113 330.09375,146.891113 L330.015137,146.891113 L328.240723,141.511719 C328.038574,140.905273 327.20752,140.894043 327.005371,141.511719 L325.230957,146.891113 L325.152344,146.891113 C324.680664,146.891113 324.287598,147.239258 324.186523,147.710938 L322.793945,154.157227 Z M327.611816,155.504883 C326.297852,155.504883 325.040039,155.235352 323.905762,154.72998 L325.343262,148.081543 L329.902832,148.081543 L331.340332,154.72998 C330.206055,155.235352 328.937012,155.504883 327.611816,155.504883 Z" id="Icon-Pencil"></path>
                    </g>
                </g>
            </g>
        </g>
    </g>
</svg>