<?xml version="1.0" encoding="UTF-8"?>
<svg width="21px" height="21px" viewBox="0 0 21 21" version="1.1" xmlns="http://www.w3.org/2000/svg" xmlns:xlink="http://www.w3.org/1999/xlink">
    <title>Icon Glass</title>
    <g id="Page-1" stroke="none" stroke-width="1" fill="none" fill-rule="evenodd">
        <g id="Mobile-Add-to-Homescreen-iOS-2" transform="translate(-368.000000, -663.000000)" fill="#121212" fill-rule="nonzero">
            <g id="Step-2-WIDE" transform="translate(21.000000, 562.000000)">
                <g id="Step-Add-to-Home-Screen" transform="translate(29.000000, 85.000000)">
                    <g id="Group">
                        <path d="M337.349121,36.4145508 C337.978027,36.4145508 338.404785,35.9316406 338.404785,35.3364258 C338.404785,35.0556641 338.314941,34.7861328 338.101562,34.5727539 L332.879395,29.3393555 C333.95752,27.9580078 334.608887,26.2285156 334.608887,24.3530273 C334.608887,19.8945312 330.970215,16.2670898 326.522949,16.2670898 C322.086914,16.2670898 318.437012,19.8945312 318.437012,24.3530273 C318.437012,28.800293 322.075684,32.4277344 326.522949,32.4277344 C328.319824,32.4277344 329.981934,31.84375 331.32959,30.8442383 L336.574219,36.1000977 C336.776367,36.3134766 337.057129,36.4145508 337.349121,36.4145508 Z M326.522949,30.9228516 C322.917969,30.9228516 319.953125,27.9467773 319.953125,24.3530273 C319.953125,20.7480469 322.917969,17.7719727 326.522949,17.7719727 C330.12793,17.7719727 333.104004,20.7480469 333.104004,24.3530273 C333.104004,27.9467773 330.12793,30.9228516 326.522949,30.9228516 Z" id="Icon-Glass"></path>
                    </g>
                </g>
            </g>
        </g>
    </g>
</svg>