<?xml version="1.0" encoding="UTF-8"?>
<svg width="12px" height="20px" viewBox="0 0 12 20" version="1.1" xmlns="http://www.w3.org/2000/svg" xmlns:xlink="http://www.w3.org/1999/xlink">
    <title>&lt;</title>
    <g id="Page-1" stroke="none" stroke-width="1" fill="none" fill-rule="evenodd">
        <g id="Mobile-Add-to-Homescreen-iOS-1" transform="translate(-74.000000, -734.000000)" fill="#000000" fill-rule="nonzero">
            <g id="Step-1-WIDE" transform="translate(21.000000, 602.000000)">
                <g id="Image----" transform="translate(53.000000, 116.000000)">
                    <path d="M9.98458505,35.5898907 C10.6115791,35.5898907 11.1084424,35.1048575 11.1084424,34.4660333 C11.1084424,34.1466213 10.9783115,33.8745295 10.7772002,33.6615881 L2.7327478,25.8064169 L10.7772002,17.9394157 C10.9783115,17.7383044 11.1084424,17.4425524 11.1084424,17.1468005 C11.1084424,16.5079763 10.6115791,16.0229432 9.98458505,16.0229432 C9.66517297,16.0229432 9.3930812,16.1294139 9.18013981,16.3423553 L0.366732389,24.9664814 C0.130130848,25.2149131 0,25.4870048 0,25.8064169 C0,26.125829 0.130130848,26.3979208 0.366732389,26.6345223 L9.18013981,35.2704786 C9.3930812,35.4715899 9.66517297,35.5898907 9.98458505,35.5898907 Z" id="&lt;"></path>
                </g>
            </g>
        </g>
    </g>
</svg>