<?xml version="1.0" encoding="UTF-8"?>
<svg width="356px" height="179px" viewBox="0 0 356 179" version="1.1" xmlns="http://www.w3.org/2000/svg" xmlns:xlink="http://www.w3.org/1999/xlink">
    <title>Group</title>
    <g id="Page-1" stroke="none" stroke-width="1" fill="none" fill-rule="evenodd">
        <g id="Mobile-Add-to-Homescreen-iOS-2" transform="translate(-50.000000, -647.000000)">
            <g id="Step-2-WIDE" transform="translate(21.000000, 562.000000)">
                <g id="Step-Add-to-Home-Screen" transform="translate(29.000000, 85.000000)">
                    <g id="Group">
                        <path d="M10,120 L346,120 C351.522847,120 356,124.477153 356,130 L356,179 L356,179 L0,179 L0,130 C-6.76353751e-16,124.477153 4.4771525,120 10,120 Z" id="Pane-Bottom" fill="#FFFFFF" opacity="0.7"></path>
                        <path d="M0,0 L356,0 L356,96 C356,101.522847 351.522847,106 346,106 L10,106 C4.4771525,106 6.76353751e-16,101.522847 0,96 L0,0 L0,0 Z" id="Pane-Top" fill="#FFFFFF" opacity="0.7"></path>
                        <path d="M327.611816,157.054688 C333.485352,157.054688 338.325684,152.203125 338.325684,146.34082 C338.325684,140.467285 333.474121,135.615723 327.611816,135.615723 C321.738281,135.615723 316.897949,140.467285 316.897949,146.34082 C316.897949,152.203125 321.749512,157.054688 327.611816,157.054688 Z M322.793945,154.157227 C320.188477,152.540039 318.447754,149.653809 318.447754,146.34082 C318.447754,141.253418 322.524414,137.165527 327.611816,137.165527 C332.687988,137.165527 336.775879,141.253418 336.787163,146.34082 C336.79834,149.642578 335.057617,152.528809 332.440918,154.145996 L331.05957,147.722168 C330.947266,147.239258 330.56543,146.891113 330.09375,146.891113 L330.015137,146.891113 L328.240723,141.511719 C328.038574,140.905273 327.20752,140.894043 327.005371,141.511719 L325.230957,146.891113 L325.152344,146.891113 C324.680664,146.891113 324.287598,147.239258 324.186523,147.710938 L322.793945,154.157227 Z M327.611816,155.504883 C326.297852,155.504883 325.040039,155.235352 323.905762,154.72998 L325.343262,148.081543 L329.902832,148.081543 L331.340332,154.72998 C330.206055,155.235352 328.937012,155.504883 327.611816,155.504883 Z" id="Icon-Pencil" fill="#121212" fill-rule="nonzero"></path>
                        <path d="M332.475098,88.9765625 C334.350586,88.9765625 335.788086,88.7744141 336.810059,87.7524414 C337.832031,86.7304688 338.011719,85.3266602 338.011719,83.4399414 L338.011719,75.2753906 C338.011719,73.3886719 337.832031,71.9736328 336.810059,70.9516602 C335.776855,69.9296875 334.350586,69.7387695 332.475098,69.7387695 L324.187012,69.7387695 C322.378906,69.7387695 320.941406,69.940918 319.919434,70.9628906 C318.897461,71.9736328 318.706543,73.3999023 318.706543,75.2192383 L318.706543,83.4399414 C318.706543,85.3266602 318.88623,86.7416992 319.908203,87.7524414 C320.941406,88.7744141 322.367676,88.9765625 324.243164,88.9765625 L332.475098,88.9765625 Z M332.76709,87.5053711 L323.951172,87.5053711 C322.771973,87.5053711 321.637695,87.3256836 320.986328,86.6855469 C320.334961,86.0341797 320.177734,84.9223633 320.177734,83.7207031 L320.177734,75.0395508 C320.177734,73.8041992 320.334961,72.6699219 320.986328,72.0185547 C321.626465,71.3671875 322.783203,71.1987305 324.007324,71.1987305 L332.76709,71.1987305 C333.946289,71.1987305 335.080566,71.378418 335.731934,72.0297852 C336.383301,72.6811523 336.551758,73.7929688 336.551758,74.9833984 L336.551758,83.7207031 C336.551758,84.9223633 336.37207,86.0341797 335.731934,86.6855469 C335.080566,87.3369141 333.946289,87.5053711 332.76709,87.5053711 Z M328.353516,84.2373047 C328.813965,84.2373047 329.128418,83.9228516 329.128418,83.4736328 L329.128418,80.0932617 L332.508789,80.0932617 C332.958008,80.0932617 333.272461,79.7788086 333.272461,79.3408203 C333.272461,78.8916016 332.958008,78.565918 332.508789,78.565918 L329.128418,78.565918 L329.128418,75.1967773 C329.128418,74.7363281 328.813965,74.421875 328.353516,74.421875 C327.915527,74.421875 327.601074,74.7363281 327.601074,75.1967773 L327.601074,78.565918 L324.231934,78.565918 C323.771484,78.565918 323.457031,78.8916016 323.457031,79.3408203 C323.457031,79.7788086 323.771484,80.0932617 324.231934,80.0932617 L327.601074,80.0932617 L327.601074,83.4736328 C327.601074,83.9228516 327.915527,84.2373047 328.353516,84.2373047 Z" id="Icon-Plus" fill="#121212" fill-rule="nonzero"></path>
                        <path d="M337.349121,36.4145508 C337.978027,36.4145508 338.404785,35.9316406 338.404785,35.3364258 C338.404785,35.0556641 338.314941,34.7861328 338.101562,34.5727539 L332.879395,29.3393555 C333.95752,27.9580078 334.608887,26.2285156 334.608887,24.3530273 C334.608887,19.8945312 330.970215,16.2670898 326.522949,16.2670898 C322.086914,16.2670898 318.437012,19.8945312 318.437012,24.3530273 C318.437012,28.800293 322.075684,32.4277344 326.522949,32.4277344 C328.319824,32.4277344 329.981934,31.84375 331.32959,30.8442383 L336.574219,36.1000977 C336.776367,36.3134766 337.057129,36.4145508 337.349121,36.4145508 Z M326.522949,30.9228516 C322.917969,30.9228516 319.953125,27.9467773 319.953125,24.3530273 C319.953125,20.7480469 322.917969,17.7719727 326.522949,17.7719727 C330.12793,17.7719727 333.104004,20.7480469 333.104004,24.3530273 C333.104004,27.9467773 330.12793,30.9228516 326.522949,30.9228516 Z" id="Icon-Glass" fill="#121212" fill-rule="nonzero"></path>
                        <path d="M188.087767,57.6212311 C89.6163328,40.9153112 4.98294616,45.767097 15.7377927,81.7419149 C32.1432476,136.617942 246.366809,127.126562 266.470275,100.383484 C284.006828,77.0550993 229.861953,56.8795395 166.79606,45.767097" id="Outline" stroke="#FF4A00" stroke-width="3" stroke-linecap="square"></path>
                    </g>
                </g>
            </g>
        </g>
    </g>
</svg>