<?xml version="1.0" encoding="UTF-8"?>
<svg width="308px" height="50px" viewBox="0 0 308 50" version="1.1" xmlns="http://www.w3.org/2000/svg" xmlns:xlink="http://www.w3.org/1999/xlink">
    <title>Image</title>
    <g id="Page-1" stroke="none" stroke-width="1" fill="none" fill-rule="evenodd">
        <g id="Mobile-Add-to-Homescreen-iOS-1" transform="translate(-74.000000, -716.000000)">
            <g id="Step-1-WIDE" transform="translate(21.000000, 602.000000)">
                <g id="Image" transform="translate(53.000000, 116.000000)">
                    <path d="M174.427914,18.4906165 C153.415629,-8.15436668 122.326273,-2.29956548 125.183831,12.8721815 C130.627393,41.7739044 166.316401,55.8102898 180.203767,38.3227313 C187.351539,29.3219542 183.47343,16.7184675 176.275994,9.51896831" id="Share-Icon-Outline" stroke="#FF4A00" stroke-width="3" stroke-linecap="square"></path>
                    <path d="M298.949991,14 C301.304176,14 302.510844,15.1948378 302.510844,17.525363 L302.510844,17.525363 L302.510844,19.2288941 L304.427317,19.2288941 C306.781502,19.2288941 308,20.4237319 308,22.7660871 L308,22.7660871 L308,34.111131 C308,36.4534863 306.781502,37.636494 304.427317,37.636494 L304.427317,37.636494 L293.153253,37.636494 C290.787238,37.636494 289.58057,36.4534863 289.58057,34.111131 L289.58057,34.111131 L289.58057,32.4075999 L287.675928,32.4075999 C285.298082,32.4075999 284.103244,31.2245922 284.103244,28.882237 L284.103244,28.882237 L284.103244,17.525363 C284.103244,15.1948378 285.298082,14 287.675928,14 L287.675928,14 Z M228.67539,15.076537 C232.046962,15.076537 234.76788,16.8155583 235.454024,18.4599391 L235.454024,18.4599391 L235.454024,35.2704786 C235.454024,36.252375 234.8152,36.6191074 234.117225,36.6191074 C233.573042,36.6191074 233.26546,36.4653164 232.910557,36.2050547 C232.165263,35.5662305 230.863954,34.8209357 228.67539,34.8209357 C226.474996,34.8209357 225.031726,35.5898907 224.333752,36.1222441 C223.990679,36.3588457 223.623947,36.6191074 222.937802,36.6191074 C222.251658,36.6191074 221.861265,36.3943359 221.530023,36.1222441 C220.879369,35.5662305 219.400609,34.8209357 217.188385,34.8209357 C214.999821,34.8209357 213.722172,35.5662305 212.953217,36.2050547 C212.610145,36.4653164 212.302563,36.6191074 211.74655,36.6191074 C211.048575,36.6191074 210.409751,36.252375 210.409751,35.2704786 L210.409751,35.2704786 L210.409751,18.4599391 C211.095895,16.8155583 213.816813,15.076537 217.188385,15.076537 C219.743682,15.076537 221.979566,16.1175838 222.937802,17.2651013 C223.884209,16.1175838 226.131923,15.076537 228.67539,15.076537 Z M304.356336,21.1808568 L293.224234,21.1808568 C292.135867,21.1808568 291.532533,21.7605306 291.532533,22.896218 L291.532533,22.896218 L291.532533,33.9810002 C291.532533,35.1166876 292.135867,35.6963614 293.224234,35.6963614 L293.224234,35.6963614 L304.356336,35.6963614 C305.432873,35.6963614 306.048037,35.1166876 306.048037,33.9810002 L306.048037,33.9810002 L306.048037,22.896218 C306.048037,21.7605306 305.432873,21.1808568 304.356336,21.1808568 L304.356336,21.1808568 Z M9.98458505,16.0229432 C10.6115791,16.0229432 11.1084424,16.5079763 11.1084424,17.1468005 C11.1084424,17.4425524 10.9783115,17.7383044 10.7772002,17.9394157 L10.7772002,17.9394157 L2.7327478,25.8064169 L10.7772002,33.6615881 C10.9783115,33.8745295 11.1084424,34.1466213 11.1084424,34.4660333 C11.1084424,35.1048575 10.6115791,35.5898907 9.98458505,35.5898907 C9.66517297,35.5898907 9.3930812,35.4715899 9.18013981,35.2704786 L9.18013981,35.2704786 L0.366732389,26.6345223 C0.130130848,26.3979208 0,26.125829 0,25.8064169 C0,25.4870048 0.130130848,25.2149131 0.366732389,24.9664814 L0.366732389,24.9664814 L9.18013981,16.3423553 C9.3930812,16.1294139 9.66517297,16.0229432 9.98458505,16.0229432 Z M73.67772,16.0229432 C73.985302,16.0229432 74.2573938,16.1294139 74.4703352,16.3423553 L74.4703352,16.3423553 L83.2955727,24.9664814 C83.5321742,25.2149131 83.650475,25.4870048 83.650475,25.8064169 C83.650475,26.125829 83.5321742,26.3979208 83.2955727,26.6345223 L83.2955727,26.6345223 L74.4703352,35.2704786 C74.2573938,35.4715899 73.985302,35.5898907 73.67772,35.5898907 C73.0388959,35.5898907 72.5538627,35.1048575 72.5538627,34.4660333 C72.5538627,34.1466213 72.6839935,33.8745295 72.8851049,33.6615881 L72.8851049,33.6615881 L80.9295573,25.8064169 L72.8851049,17.9394157 C72.6839935,17.7383044 72.5538627,17.4425524 72.5538627,17.1468005 C72.5538627,16.5079763 73.0388959,16.0229432 73.67772,16.0229432 Z M217.188385,17.0403298 C214.514788,17.0403298 212.787596,18.3534684 212.515505,19.0987632 L212.515505,19.0987632 L212.515505,34.2412619 C213.663022,33.342176 215.366553,32.8689729 217.188385,32.8689729 C219.022047,32.8689729 220.725578,33.342176 221.884926,34.1939416 L221.884926,34.1939416 L221.884926,19.0987632 C221.636494,18.3652984 219.873813,17.0403298 217.188385,17.0403298 Z M228.67539,17.0403298 C225.989962,17.0403298 224.227281,18.3652984 223.978849,19.0987632 L223.978849,19.0987632 L223.978849,34.1939416 C225.150027,33.342176 226.841728,32.8689729 228.67539,32.8689729 C230.509052,32.8689729 232.200753,33.342176 233.34827,34.2412619 L233.34827,34.2412619 L233.34827,19.0987632 C233.076179,18.3534684 231.348987,17.0403298 228.67539,17.0403298 Z M298.879011,15.9519627 L287.746908,15.9519627 C286.658541,15.9519627 286.055207,16.5316365 286.055207,17.6554938 L286.055207,17.6554938 L286.055207,28.7521061 C286.055207,29.8877935 286.658541,30.4674673 287.746908,30.4674673 L287.746908,30.4674673 L289.58057,30.4674673 L289.58057,22.7660871 C289.58057,20.4237319 290.787238,19.2288941 293.153253,19.2288941 L293.153253,19.2288941 L300.570712,19.2288941 L300.570712,17.6554938 C300.570712,16.5316365 299.955548,15.9519627 298.879011,15.9519627 L298.879011,15.9519627 Z" id="Share-Curve" fill="#818181" fill-rule="nonzero" opacity="0.249116443"></path>
                    <path d="M153.651545,24.9718238 C154.142108,24.9718238 154.552812,24.5725282 154.552812,24.081965 L154.552812,13.0728151 L154.484361,11.4642242 L155.191685,12.2399985 L156.788867,13.9398569 C156.948586,14.1223921 157.176755,14.2136596 157.393515,14.2136596 C157.861261,14.2136596 158.226332,13.8828147 158.226332,13.4150684 C158.226332,13.1754911 158.123656,12.9929559 157.963937,12.8218293 L154.324643,9.30802803 C154.085066,9.07985912 153.879714,9 153.651545,9 C153.411968,9 153.206616,9.07985912 152.978447,9.30802803 L149.339153,12.8218293 C149.168026,12.9929559 149.06535,13.1754911 149.06535,13.4150684 C149.06535,13.8828147 149.419012,14.2136596 149.886758,14.2136596 C150.103518,14.2136596 150.354504,14.1223921 150.514222,13.9398569 L152.099996,12.2399985 L152.80732,11.4642242 L152.738869,13.0728151 L152.738869,24.081965 C152.738869,24.5725282 153.149573,24.9718238 153.651545,24.9718238 Z M159.834922,33.4825242 C162.12802,33.4825242 163.280273,32.3302712 163.280273,30.0828074 L163.280273,19.370277 C163.280273,17.1114048 162.12802,15.9591518 159.834922,15.9591518 L156.868727,15.9591518 L156.868727,17.8415453 L159.77788,17.8415453 C160.816049,17.8415453 161.409288,18.4005591 161.409288,19.4957699 L161.409288,29.9573145 C161.409288,31.0525253 160.816049,31.6115391 159.77788,31.6115391 L147.513801,31.6115391 C146.464224,31.6115391 145.882394,31.0525253 145.882394,29.9573145 L145.882394,19.4957699 C145.882394,18.4005591 146.464224,17.8415453 147.513801,17.8415453 L150.434363,17.8415453 L150.434363,15.9591518 L147.445351,15.9591518 C145.163661,15.9591518 144,17.1114048 144,19.370277 L144,30.0828074 C144,32.3416796 145.163661,33.4825242 147.445351,33.4825242 L159.834922,33.4825242 Z" id="Share-Icon" fill="#037AFE" fill-rule="nonzero"></path>
                </g>
            </g>
        </g>
    </g>
</svg>